HIERARCHY
ROOT Hips
{
  OFFSET 3.13124 94.3669 -3.18751
  CHANNELS  6 Xposition Yposition Zposition Zrotation Xrotation Yrotation
  JOINT LeftUpLeg
  {
    OFFSET 8.64259 1.95398 -2.38835
    CHANNELS 3 Zrotation Xrotation Yrotation
    JOINT LeftLeg
    {
      OFFSET 43.7702 0 0
      CHANNELS 3 Zrotation Xrotation Yrotation
      JOINT LeftFoot
      {
        OFFSET 40.6238 0 0
        CHANNELS 3 Zrotation Xrotation Yrotation
        JOINT LeftToeBase
        {
          OFFSET 12.7242 0 0
          CHANNELS 3 Zrotation Xrotation Yrotation
          End Site
          {
            OFFSET 0 0 0
          }
        }
      }
    }
  }
  JOINT RightUpLeg
  {
    OFFSET -8.2249 1.95398 -2.59336
    CHANNELS 3 Zrotation Xrotation Yrotation
    JOINT RightLeg
    {
      OFFSET 43.5653 0 0
      CHANNELS 3 Zrotation Xrotation Yrotation
      JOINT RightFoot
      {
        OFFSET 40.6238 0 0
        CHANNELS 3 Zrotation Xrotation Yrotation
        JOINT RightToeBase
        {
          OFFSET 12.7242 0 0
          CHANNELS 3 Zrotation Xrotation Yrotation
          End Site
          {
            OFFSET 0 0 0
          }
        }
      }
    }
  }
  JOINT Spine
  {
    OFFSET 0.165834 0.87714 6.61349
    CHANNELS 3 Zrotation Xrotation Yrotation
    JOINT Spine1
    {
      OFFSET 7.38962 1.71661e-005 0
      CHANNELS 3 Zrotation Xrotation Yrotation
      JOINT Spine2
      {
        OFFSET 11.9445 1.14441e-005 0
        CHANNELS 3 Zrotation Xrotation Yrotation
        JOINT Spine3
        {
          OFFSET 14.7254 4.19617e-005 0
          CHANNELS 3 Zrotation Xrotation Yrotation
          JOINT Spine4
          {
            OFFSET 10.9679 0 0
            CHANNELS 3 Zrotation Xrotation Yrotation
            JOINT RightShoulder
            {
              OFFSET 2.46616 -1.6653 3.69651
              CHANNELS 3 Zrotation Xrotation Yrotation
              JOINT RightArm
              {
                OFFSET 13.0012 0 0
                CHANNELS 3 Zrotation Xrotation Yrotation
                JOINT RightForeArm
                {
                  OFFSET 28.7848 1.52588e-005 0
                  CHANNELS 3 Zrotation Xrotation Yrotation
                  JOINT RightHand
                  {
                    OFFSET 26.5688 1.52588e-005 0
                    CHANNELS 3 Zrotation Xrotation Yrotation
                    End Site
                    {
                      OFFSET 0 0 0
                    }
                  }
                }
              }
            }
            JOINT LeftShoulder
            {
              OFFSET 2.38034 -1.29275 -3.75231
              CHANNELS 3 Zrotation Xrotation Yrotation
              JOINT LeftArm
              {
                OFFSET 16.3182 6.10352e-005 0
                CHANNELS 3 Zrotation Xrotation Yrotation
                JOINT LeftForeArm
                {
                  OFFSET 27.0901 0 0
                  CHANNELS 3 Zrotation Xrotation Yrotation
                  JOINT LeftHand
                  {
                    OFFSET 24.5451 1.52588e-005 0
                    CHANNELS 3 Zrotation Xrotation Yrotation
                    End Site
                    {
                      OFFSET 0 0 0
                    }
                  }
                }
              }
            }
            JOINT Neck
            {
              OFFSET 5.0226 -0.0266342 0
              CHANNELS 3 Zrotation Xrotation Yrotation
              JOINT Head
              {
                OFFSET 6.69363 2.86102e-005 0
                CHANNELS 3 Zrotation Xrotation Yrotation
                End Site
                {
                  OFFSET 0 0 0
                }
              }
            }
          }
        }
      }
    }
  }
}
MOTION
Frames:	11
Frame Time:	0.0333333
3.40961 95.911 0.0317542 -65.8113 -89.9954 -65.8076 -179.288 1.83617 91.2114 -7.45622 0.574777 0.0498758 62.6352 1.44283 0.731937 28.7808 7.39953e-006 3.56447e-006 179.12 1.79252 88.4588 -7.33626 -0.783475 -0.0502835 62.5959 -1.22422 -0.620686 28.7808 1.33393e-005 2.0802e-005 0.00018358 6.34026 -90.0028 14.1934 0.0105922 6.50683e-005 2.52243 0.00976575 5.96191e-005 -20.0127 -3.29326e-005 5.88423e-005 -8.20225e-005 -3.19958e-005 5.5957e-005 101.08 -17.8192 -84.9108 -6.12237 28.0077 -9.60342 -6.29067 -28.8843 -8.67069 1.48754 0.0829597 0.915616 -78.7823 -20.6157 94.7196 13.1429 -28.619 -7.36906 4.9499 28.8386 -8.0398 -1.55732 -0.0589661 1.11742 1.75985 0.00364569 0.00176515 -7.4161 -0.0010997 -0.00434903 
3.42108 95.9174 0.0195453 -60.1707 -89.9233 -60.107 -179.285 2.50993 91.2689 -8.73242 0.564511 0.0498757 62.9135 1.35474 0.691182 28.7808 7.39953e-006 3.56447e-006 179.118 1.5013 88.512 -6.62547 -0.809792 -0.0502839 62.2327 -1.21301 -0.606874 28.7808 1.33393e-005 2.0802e-005 0.00385248 6.33938 -90.045 14.1951 0.0105922 -0.00129632 2.52419 0.00976575 -0.00130777 -20.011 0.000648658 -0.00115265 0.00167974 0.000647494 -0.00115606 101.123 -17.8399 -84.97 -6.01941 27.9241 -9.89907 -6.0666 -28.7386 -8.25203 1.23791 0.074713 1.21014 -78.6944 -20.5882 94.7937 13.0762 -28.6355 -7.41445 4.95874 28.4681 -8.11944 -1.54389 -0.0589562 1.53183 1.8518 0.0543219 0.0313458 -7.49737 -0.0174829 -0.0696192 
3.42153 95.9428 0.00958179 -22.6071 -89.8301 -22.4777 -179.256 2.53513 91.3355 -8.50554 0.550425 0.0498756 62.7218 1.37095 0.697995 28.7808 7.39953e-006 3.56447e-006 179.141 1.00297 88.5865 -5.32753 -0.758929 -0.0502833 61.5868 -1.2104 -0.596641 28.7808 1.33393e-005 2.0802e-005 0.0121847 6.31747 -90.0668 14.2389 0.0105922 -0.0347309 2.56799 0.00976575 -0.035043 -19.9672 0.0178773 -0.0307882 0.0454823 0.0178806 -0.0307877 101.086 -17.7816 -84.9011 -6.00636 27.875 -10.0467 -5.91635 -28.6879 -7.95711 1.15446 0.0680364 1.07683 -78.7568 -20.6511 94.7758 13.0569 -28.626 -7.43154 4.9698 28.6607 -8.11008 -1.56421 -0.058961 1.34455 1.85437 -0.00409362 0.0736432 -7.54615 -0.0138136 -0.0673168 
3.45953 95.9347 0.0149625 -40.7126 -89.9064 -40.6569 -179.317 2.53733 91.2366 -8.69943 0.47224 0.049875 62.766 1.33791 0.680737 28.7808 7.39953e-006 3.56447e-006 179.074 1.02307 88.4809 -5.55528 -0.820381 -0.050284 61.7077 -1.21531 -0.598494 28.7808 1.33393e-005 2.0802e-005 0.0131221 6.32595 -90.0776 14.222 0.0105567 -0.0184925 2.55105 0.00971518 -0.0189475 -19.9841 0.0157289 -0.0143899 0.0285408 0.0157367 -0.0143899 101.094 -17.8133 -84.8784 -6.0252 27.777 -10.3645 -5.58803 -28.7029 -7.28298 0.994813 0.0568812 0.89536 -78.756 -20.6059 94.7777 13.0093 -28.6087 -7.40597 4.99487 28.73 -8.15023 -1.55366 -0.0589622 1.29517 1.89018 -0.00750659 0.0158418 -7.53432 -0.0103673 -0.0278432 
3.48346 95.9333 0.0116754 -71.1667 -89.9244 -71.0999 -179.315 2.46291 91.2337 -8.65175 0.48038 0.049875 62.8075 1.38397 0.707885 28.7808 7.39953e-006 3.56447e-006 179.076 1.07983 88.4759 -5.7684 -0.84448 -0.0502843 61.8257 -1.20441 -0.594366 28.7808 1.33393e-005 2.0802e-005 0.0155186 6.33056 -90.078 14.2128 0.00995972 -0.0304289 2.54181 0.00887118 -0.0310036 -19.9933 0.0193337 -0.0249095 0.0193005 0.0193358 -0.0249104 101.1 -17.815 -84.8541 -5.98977 27.8978 -10.0965 -5.95224 -28.7267 -8.02378 1.25041 0.0749374 1.18053 -78.7425 -20.6236 94.8161 12.9854 -28.6173 -7.45972 4.99986 28.7459 -8.15994 -1.56835 -0.058962 1.30369 1.97074 -0.00665111 0.0343628 -7.57538 -0.0106132 -0.073583 
3.50207 95.9459 0.00738109 -65.1867 -89.9311 -65.1522 -179.32 1.94534 91.1862 -7.5803 0.449073 0.0498748 62.4951 1.40735 0.714225 28.7808 7.39953e-006 3.56447e-006 179.064 0.956055 88.4248 -5.5039 -0.83932 -0.0502842 61.6861 -1.18741 -0.583037 28.7808 1.33393e-005 2.0802e-005 0.0138188 6.33163 -90.053 14.2106 0.00933802 -0.033592 2.53968 0.00799642 -0.0341668 -19.9955 0.0230996 -0.0279072 0.0171764 0.0230957 -0.0279121 101.116 -17.8452 -84.8138 -6.02941 27.6585 -10.797 -5.18875 -28.6629 -6.45121 0.855447 0.0450718 0.545635 -78.7452 -20.6229 94.8087 12.9897 -28.7023 -7.22011 5.28774 28.8441 -8.72465 -1.81127 -0.058957 1.50426 2.03703 -0.0197273 0.0033435 -7.59193 -0.0206681 -0.0623198 
3.52975 95.9085 -0.00513834 -95.4636 -89.9228 -95.4677 -179.348 2.4583 91.1269 -8.69785 0.422059 0.0498746 62.8915 1.39616 0.71387 28.7808 7.39953e-006 3.56447e-006 179.057 1.75633 88.375 -7.20638 -0.882225 -0.0502848 62.5526 -1.19552 -0.602054 28.7808 1.33393e-005 2.0802e-005 0.0155754 6.33834 -90.0437 14.1971 0.00873253 -0.0317663 2.52619 0.00714182 -0.0325933 -20.009 0.0249901 -0.0245412 0.00368443 0.0249847 -0.0245467 101.125 -17.8692 -84.7864 -6.04014 27.4436 -11.4089 -4.52745 -28.4806 -5.09129 0.545111 0.0239794 -0.0317693 -78.7357 -20.6232 94.8345 12.9678 -28.6713 -7.35577 5.16969 28.8053 -8.49675 -1.71794 -0.0589584 1.45045 2.14385 -0.02939 0.00783946 -7.67083 -0.0318603 -0.0944053 
3.53673 95.9164 -0.01467 -84.1944 -89.9611 -84.1733 -179.344 2.53919 91.1554 -8.81828 0.518259 0.0498753 62.9147 1.37345 0.702243 28.7808 7.39953e-006 3.56447e-006 179.052 1.48411 88.3904 -6.6228 -0.844247 -0.0502843 62.3063 -1.15595 -0.574111 28.7808 1.33393e-005 2.0802e-005 0.0140002 6.33988 -90.0649 14.1938 0.00818421 -0.0368667 2.52289 0.00635825 -0.0373568 -20.0123 0.026604 -0.03167 0.000388607 0.0265985 -0.0316715 101.132 -17.8874 -84.7637 -5.93078 27.7254 -10.7627 -5.40374 -28.7489 -6.88542 1.03454 0.057658 0.813525 -78.7481 -20.6061 94.8067 12.9514 -28.6487 -7.34977 5.13279 28.7407 -8.44032 -1.67591 -0.0589585 1.44537 2.13943 -0.032032 0.0018993 -7.6305 -0.0314774 -0.096222 
3.55097 95.9342 -0.0201193 -23.3723 -89.956 -23.3224 -179.341 2.44192 91.1745 -8.52778 0.538607 0.0498755 62.7778 1.39245 0.712137 28.7808 7.39953e-006 3.56447e-006 179.041 0.977797 88.4145 -5.49189 -0.79489 -0.0502837 61.7728 -1.17284 -0.574626 28.7808 1.33393e-005 2.0802e-005 0.0145078 6.33975 -90.0854 14.1946 0.00773404 -0.0462533 2.52368 0.00569645 -0.0465545 -20.0115 0.0279204 -0.0418167 0.00117798 0.0279161 -0.0418297 101.116 -17.8698 -84.805 -5.89824 27.7604 -10.6198 -5.54386 -28.6577 -7.18984 1.1187 0.0625598 0.84251 -78.7432 -20.6328 94.8187 12.9377 -28.6896 -7.28708 5.2434 28.7198 -8.67345 -1.76121 -0.0582448 1.60565 2.17109 -0.0418313 0.0599369 -7.67327 -0.0444851 -0.176093 
3.56553 95.934 -0.0223255 8.16638 -89.9484 8.1868 -179.35 2.2671 91.1323 -8.13799 0.508129 0.0498753 62.6639 1.41678 0.723144 28.7808 7.39953e-006 3.56447e-006 179.039 1.24989 88.376 -6.0338 -0.81031 -0.0502839 61.9855 -1.17565 -0.581068 28.7808 1.33393e-005 2.0802e-005 0.0133117 6.34183 -90.0659 14.1902 0.00741487 -0.050015 2.51924 0.00515108 -0.0503245 -20.0159 0.0289186 -0.0453445 -0.00324644 0.0289161 -0.0453534 101.124 -17.8845 -84.783 -5.92636 27.6167 -11.057 -5.07458 -28.6539 -6.22427 0.938328 0.0481781 0.472109 -78.7532 -20.6433 94.7952 12.9437 -28.5775 -7.62368 4.86529 28.7196 -7.90015 -1.52372 -0.0483656 1.31917 2.15683 -0.0574121 0.0544631 -7.6813 -0.0538593 -0.186931 
3.58262 95.9222 -0.0183215 25.7972 -89.9741 25.8308 -179.351 2.43934 91.1378 -8.56097 0.562234 0.0498757 62.8626 1.43538 0.737418 28.7808 7.39953e-006 3.56447e-006 179.039 1.33327 88.3755 -6.27608 -0.824178 -0.050284 62.1282 -1.15026 -0.567904 28.7808 1.33393e-005 2.0802e-005 0.0148492 6.34747 -90.0737 14.1791 0.00720099 -0.0518495 2.50817 0.00468339 -0.0522802 -20.027 0.0295776 -0.0464795 -0.0143216 0.0295773 -0.0464899 101.108 -17.8899 -84.8233 -5.87784 27.7997 -10.5623 -5.65555 -28.6706 -7.41894 1.284 0.0729562 0.955742 -78.7864 -20.5953 94.7194 12.9323 -28.7052 -7.08226 5.38416 28.7359 -8.95801 -1.80153 -0.0603405 1.6833 2.11393 -0.0518626 0.0313839 -7.66903 -0.0476689 -0.192192 
